<?xml version="1.0" encoding="utf-8"?>
<svg xmlns="http://www.w3.org/2000/svg"
	xmlns:xlink="http://www.w3.org/1999/xlink"
	width="120px" height="124px" viewBox="0 0 120 124">
<path fillRule="evenodd" d="M 120 14C 120 14 56 14 56 14 56 14 56 80 56 80 56 80 120 80 120 80 120 80 99.84 47 99.84 47 99.84 47 120 14 120 14Z" fill="rgb(215,71,71)"/><path fillRule="evenodd" d="M 56 66.75C 56 66.75 56 80 56 80 56 80 73 69 73 69 73 69 56 66.75 56 66.75Z" fill="rgb(169,30,30)"/><path fillRule="evenodd" d="M 73 69C 73 69 25 69 25 69 25 69 6.66 5 6.66 5 6.66 5 73 5 73 5 73 5 73 69 73 69Z" fill="rgb(244,123,113)"/><path fillRule="evenodd" d="M 4.44 0.18C 7.1-0.53 9.84 1.05 10.56 3.72 10.56 3.72 41.1 117.7 41.1 117.7 41.81 120.36 40.23 123.1 37.56 123.82 34.9 124.53 32.16 122.95 31.44 120.28 31.44 120.28 0.9 6.3 0.9 6.3 0.19 3.64 1.77 0.9 4.44 0.18Z" fill="rgb(217,233,241)"/></svg>