<?xml version="1.0" encoding="utf-8"?>
<svg xmlns="http://www.w3.org/2000/svg"
	xmlns:xlink="http://www.w3.org/1999/xlink"
	width="159px" height="126px" viewBox="0 0 159 126">
<clipPath id="clip0"><path fillRule="evenodd" d="M 156.82 88.05C 156.82 88.05 152.08 90.32 152.08 90.32 150.59 91.04 149.19 92.96 148.96 94.59 148.96 94.59 147.76 99.4 147.76 99.4 147.2 100.95 147.51 103.34 148.44 104.7 148.44 104.7 151.9 109.76 151.9 109.76 152.84 111.12 152.64 113.19 151.48 114.35 151.48 114.35 146.34 119.49 146.34 119.49 145.17 120.66 143.1 120.85 141.74 119.92 141.74 119.92 136.64 116.42 136.64 116.42 135.27 115.49 132.89 115.19 131.33 115.74 131.33 115.74 127.16 116.81 127.16 116.81 125.53 117.05 123.61 118.47 122.9 119.96 122.9 119.96 121.04 123.82 121.04 123.82 120.33 125.31 118.44 126.18 116.85 125.75 116.85 125.75 109.83 123.87 109.83 123.87 108.23 123.45 107.03 121.75 107.16 120.11 107.16 120.11 107.5 115.69 107.5 115.69 107.62 114.05 106.64 111.9 105.32 110.91 105.32 110.91 105.01 110.68 103.78 109.45 102.47 108.13 102.11 107.64 102.11 107.64 101.13 106.31 98.99 105.33 97.34 105.45 97.34 105.45 92.85 105.8 92.85 105.8 91.21 105.92 89.51 104.72 89.09 103.13 89.09 103.13 87.2 96.11 87.2 96.11 86.78 94.52 87.65 92.63 89.13 91.91 89.13 91.91 93.3 89.92 93.3 89.92 94.78 89.2 96.21 87.29 96.46 85.66 96.46 85.66 97.22 82.62 97.22 82.62 97.74 81.06 97.41 78.67 96.48 77.31 96.48 77.31 93.64 73.16 93.64 73.16 92.71 71.8 92.9 69.73 94.07 68.56 94.07 68.56 99.21 63.43 99.21 63.43 100.38 62.26 102.44 62.07 103.81 63 103.81 63 107.32 65.4 107.32 65.4 108.68 66.34 111.04 66.57 112.56 65.92 112.56 65.92 116.5 64.65 116.5 64.65 118.12 64.31 120.02 62.81 120.73 61.32 120.73 61.32 122.89 56.81 122.89 56.81 123.61 55.32 125.5 54.46 127.09 54.88 127.09 54.88 134.11 56.76 134.11 56.76 135.7 57.19 136.9 58.89 136.78 60.53 136.78 60.53 136.47 64.57 136.47 64.57 136.34 66.21 137.36 68.32 138.72 69.25 138.72 69.25 139.92 70.06 141.54 71.68 142.54 72.68 142.54 72.68 142.54 72.68 143.48 73.87 145.6 74.74 147.24 74.62 147.24 74.62 153.1 74.17 153.1 74.17 154.74 74.04 156.44 75.24 156.86 76.84 156.86 76.84 158.74 83.86 158.74 83.86 159.17 85.45 158.3 87.34 156.82 88.05ZM 128.58 84.65C 125.3 81.37 120 81.37 116.73 84.64 113.46 87.9 113.47 93.21 116.75 96.48 120.02 99.76 125.32 99.76 128.59 96.49 131.86 93.23 131.85 87.92 128.58 84.65ZM 95.2 56.69C 95.2 56.69 88.78 57.89 88.78 57.89 87.16 58.2 85.41 59.73 84.89 61.29 84.89 61.29 83.03 65.83 83.03 65.83 82.29 67.3 82.45 69.63 83.38 70.99 83.38 70.99 87.06 76.37 87.06 76.37 87.99 77.73 87.8 79.8 86.63 80.97 86.63 80.97 80.98 86.62 80.98 86.62 79.81 87.79 77.74 87.98 76.38 87.05 76.38 87.05 71.06 83.41 71.06 83.41 69.7 82.48 67.39 82.33 65.92 83.08 65.92 83.08 61.27 85.02 61.27 85.02 59.71 85.54 58.18 87.3 57.87 88.92 57.87 88.92 56.7 95.19 56.7 95.19 56.4 96.81 54.8 98.14 53.15 98.14 53.15 98.14 45.15 98.14 45.15 98.14 43.5 98.14 41.9 96.81 41.59 95.19 41.59 95.19 40.43 88.96 40.43 88.96 40.12 87.34 38.59 85.59 37.03 85.07 37.03 85.07 32.31 83.13 32.31 83.13 30.84 82.38 28.52 82.54 27.15 83.47 27.15 83.47 21.92 87.05 21.92 87.05 20.56 87.98 18.49 87.79 17.32 86.62 17.32 86.62 11.66 80.97 11.66 80.97 10.5 79.8 10.3 77.73 11.24 76.37 11.24 76.37 14.83 71.12 14.83 71.12 15.76 69.76 15.91 67.44 15.17 65.97 15.17 65.97 13.23 61.26 13.23 61.26 12.71 59.7 10.96 58.17 9.34 57.86 9.34 57.86 3.1 56.69 3.1 56.69 1.47 56.39 0.15 54.79 0.15 53.14 0.15 53.14 0.15 45.14 0.15 45.14 0.15 43.49 1.47 41.89 3.1 41.58 3.1 41.58 9.34 40.41 9.34 40.41 10.96 40.11 12.71 38.58 13.23 37.01 13.23 37.01 15.17 32.31 15.17 32.31 15.91 30.84 15.76 28.52 14.83 27.16 14.83 27.16 11.23 21.91 11.23 21.91 10.3 20.54 10.49 18.47 11.66 17.31 11.66 17.31 17.32 11.65 17.32 11.65 18.49 10.48 20.55 10.29 21.92 11.22 21.92 11.22 27.15 14.81 27.15 14.81 28.52 15.74 30.83 15.89 32.31 15.15 32.31 15.15 37.03 13.2 37.03 13.2 38.59 12.69 40.12 10.93 40.43 9.31 40.43 9.31 41.59 3.09 41.59 3.09 41.9 1.46 43.5 0.14 45.15 0.14 45.15 0.14 53.15 0.14 53.15 0.14 54.8 0.14 56.4 1.46 56.7 3.09 56.7 3.09 57.87 9.35 57.87 9.35 58.18 10.97 59.71 12.73 61.27 13.26 61.27 13.26 65.92 15.19 65.92 15.19 67.39 15.94 69.7 15.79 71.06 14.86 71.06 14.86 76.38 11.22 76.38 11.22 77.74 10.29 79.81 10.48 80.98 11.65 80.98 11.65 86.63 17.31 86.63 17.31 87.8 18.47 87.99 20.54 87.06 21.91 87.06 21.91 83.38 27.29 83.38 27.29 82.45 28.65 82.29 30.97 83.03 32.45 83.03 32.45 84.89 36.98 84.89 36.98 85.41 38.55 87.16 40.08 88.78 40.38 88.78 40.38 95.2 41.58 95.2 41.58 96.82 41.89 98.15 43.49 98.15 45.14 98.15 45.14 98.15 53.14 98.15 53.14 98.15 54.79 96.82 56.39 95.2 56.69ZM 49.06 36.17C 41.92 36.17 36.12 41.97 36.12 49.14 36.12 56.3 41.92 62.11 49.06 62.11 56.21 62.11 62 56.3 62 49.14 62 41.97 56.21 36.17 49.06 36.17Z"/></clipPath><path fillRule="evenodd" d="M 156.82 88.05C 156.82 88.05 152.08 90.32 152.08 90.32 150.59 91.04 149.19 92.96 148.96 94.59 148.96 94.59 147.76 99.4 147.76 99.4 147.2 100.95 147.51 103.34 148.44 104.7 148.44 104.7 151.9 109.76 151.9 109.76 152.84 111.12 152.64 113.19 151.48 114.35 151.48 114.35 146.34 119.49 146.34 119.49 145.17 120.66 143.1 120.85 141.74 119.92 141.74 119.92 136.64 116.42 136.64 116.42 135.27 115.49 132.89 115.19 131.33 115.74 131.33 115.74 127.16 116.81 127.16 116.81 125.53 117.05 123.61 118.47 122.9 119.96 122.9 119.96 121.04 123.82 121.04 123.82 120.33 125.31 118.44 126.18 116.85 125.75 116.85 125.75 109.83 123.87 109.83 123.87 108.23 123.45 107.03 121.75 107.16 120.11 107.16 120.11 107.5 115.69 107.5 115.69 107.62 114.05 106.64 111.9 105.32 110.91 105.32 110.91 105.01 110.68 103.78 109.45 102.47 108.13 102.11 107.64 102.11 107.64 101.13 106.31 98.99 105.33 97.34 105.45 97.34 105.45 92.85 105.8 92.85 105.8 91.21 105.92 89.51 104.72 89.09 103.13 89.09 103.13 87.2 96.11 87.2 96.11 86.78 94.52 87.65 92.63 89.13 91.91 89.13 91.91 93.3 89.92 93.3 89.92 94.78 89.2 96.21 87.29 96.46 85.66 96.46 85.66 97.22 82.62 97.22 82.62 97.74 81.06 97.41 78.67 96.48 77.31 96.48 77.31 93.64 73.16 93.64 73.16 92.71 71.8 92.9 69.73 94.07 68.56 94.07 68.56 99.21 63.43 99.21 63.43 100.38 62.26 102.44 62.07 103.81 63 103.81 63 107.32 65.4 107.32 65.4 108.68 66.34 111.04 66.57 112.56 65.92 112.56 65.92 116.5 64.65 116.5 64.65 118.12 64.31 120.02 62.81 120.73 61.32 120.73 61.32 122.89 56.81 122.89 56.81 123.61 55.32 125.5 54.46 127.09 54.88 127.09 54.88 134.11 56.76 134.11 56.76 135.7 57.19 136.9 58.89 136.78 60.53 136.78 60.53 136.47 64.57 136.47 64.57 136.34 66.21 137.36 68.32 138.72 69.25 138.72 69.25 139.92 70.06 141.54 71.68 142.54 72.68 142.54 72.68 142.54 72.68 143.48 73.87 145.6 74.74 147.24 74.62 147.24 74.62 153.1 74.17 153.1 74.17 154.74 74.04 156.44 75.24 156.86 76.84 156.86 76.84 158.74 83.86 158.74 83.86 159.17 85.45 158.3 87.34 156.82 88.05ZM 128.58 84.65C 125.3 81.37 120 81.37 116.73 84.64 113.46 87.9 113.47 93.21 116.75 96.48 120.02 99.76 125.32 99.76 128.59 96.49 131.86 93.23 131.85 87.92 128.58 84.65ZM 95.2 56.69C 95.2 56.69 88.78 57.89 88.78 57.89 87.16 58.2 85.41 59.73 84.89 61.29 84.89 61.29 83.03 65.83 83.03 65.83 82.29 67.3 82.45 69.63 83.38 70.99 83.38 70.99 87.06 76.37 87.06 76.37 87.99 77.73 87.8 79.8 86.63 80.97 86.63 80.97 80.98 86.62 80.98 86.62 79.81 87.79 77.74 87.98 76.38 87.05 76.38 87.05 71.06 83.41 71.06 83.41 69.7 82.48 67.39 82.33 65.92 83.08 65.92 83.08 61.27 85.02 61.27 85.02 59.71 85.54 58.18 87.3 57.87 88.92 57.87 88.92 56.7 95.19 56.7 95.19 56.4 96.81 54.8 98.14 53.15 98.14 53.15 98.14 45.15 98.14 45.15 98.14 43.5 98.14 41.9 96.81 41.59 95.19 41.59 95.19 40.43 88.96 40.43 88.96 40.12 87.34 38.59 85.59 37.03 85.07 37.03 85.07 32.31 83.13 32.31 83.13 30.84 82.38 28.52 82.54 27.15 83.47 27.15 83.47 21.92 87.05 21.92 87.05 20.56 87.98 18.49 87.79 17.32 86.62 17.32 86.62 11.66 80.97 11.66 80.97 10.5 79.8 10.3 77.73 11.24 76.37 11.24 76.37 14.83 71.12 14.83 71.12 15.76 69.76 15.91 67.44 15.17 65.97 15.17 65.97 13.23 61.26 13.23 61.26 12.71 59.7 10.96 58.17 9.34 57.86 9.34 57.86 3.1 56.69 3.1 56.69 1.47 56.39 0.15 54.79 0.15 53.14 0.15 53.14 0.15 45.14 0.15 45.14 0.15 43.49 1.47 41.89 3.1 41.58 3.1 41.58 9.34 40.41 9.34 40.41 10.96 40.11 12.71 38.58 13.23 37.01 13.23 37.01 15.17 32.31 15.17 32.31 15.91 30.84 15.76 28.52 14.83 27.16 14.83 27.16 11.23 21.91 11.23 21.91 10.3 20.54 10.49 18.47 11.66 17.31 11.66 17.31 17.32 11.65 17.32 11.65 18.49 10.48 20.55 10.29 21.92 11.22 21.92 11.22 27.15 14.81 27.15 14.81 28.52 15.74 30.83 15.89 32.31 15.15 32.31 15.15 37.03 13.2 37.03 13.2 38.59 12.69 40.12 10.93 40.43 9.31 40.43 9.31 41.59 3.09 41.59 3.09 41.9 1.46 43.5 0.14 45.15 0.14 45.15 0.14 53.15 0.14 53.15 0.14 54.8 0.14 56.4 1.46 56.7 3.09 56.7 3.09 57.87 9.35 57.87 9.35 58.18 10.97 59.71 12.73 61.27 13.26 61.27 13.26 65.92 15.19 65.92 15.19 67.39 15.94 69.7 15.79 71.06 14.86 71.06 14.86 76.38 11.22 76.38 11.22 77.74 10.29 79.81 10.48 80.98 11.65 80.98 11.65 86.63 17.31 86.63 17.31 87.8 18.47 87.99 20.54 87.06 21.91 87.06 21.91 83.38 27.29 83.38 27.29 82.45 28.65 82.29 30.97 83.03 32.45 83.03 32.45 84.89 36.98 84.89 36.98 85.41 38.55 87.16 40.08 88.78 40.38 88.78 40.38 95.2 41.58 95.2 41.58 96.82 41.89 98.15 43.49 98.15 45.14 98.15 45.14 98.15 53.14 98.15 53.14 98.15 54.79 96.82 56.39 95.2 56.69ZM 49.06 36.17C 41.92 36.17 36.12 41.97 36.12 49.14 36.12 56.3 41.92 62.11 49.06 62.11 56.21 62.11 62 56.3 62 49.14 62 41.97 56.21 36.17 49.06 36.17Z" fill="rgb(71,126,187)"/><g><path fillRule="evenodd" d="M 156.82 88.05C 156.82 88.05 152.08 90.32 152.08 90.32 150.59 91.04 149.19 92.96 148.96 94.59 148.96 94.59 147.76 99.4 147.76 99.4 147.2 100.95 147.51 103.34 148.44 104.7 148.44 104.7 151.9 109.76 151.9 109.76 152.84 111.12 152.64 113.19 151.48 114.35 151.48 114.35 146.34 119.49 146.34 119.49 145.17 120.66 143.1 120.85 141.74 119.92 141.74 119.92 136.64 116.42 136.64 116.42 135.27 115.49 132.89 115.19 131.33 115.74 131.33 115.74 127.16 116.81 127.16 116.81 125.53 117.05 123.61 118.47 122.9 119.96 122.9 119.96 121.04 123.82 121.04 123.82 120.33 125.31 118.44 126.18 116.85 125.75 116.85 125.75 109.83 123.87 109.83 123.87 108.23 123.45 107.03 121.75 107.16 120.11 107.16 120.11 107.5 115.69 107.5 115.69 107.62 114.05 106.64 111.9 105.32 110.91 105.32 110.91 105.01 110.68 103.78 109.45 102.47 108.13 102.11 107.64 102.11 107.64 101.13 106.31 98.99 105.33 97.34 105.45 97.34 105.45 92.85 105.8 92.85 105.8 91.21 105.92 89.51 104.72 89.09 103.13 89.09 103.13 87.2 96.11 87.2 96.11 86.78 94.52 87.65 92.63 89.13 91.91 89.13 91.91 93.3 89.92 93.3 89.92 94.78 89.2 96.21 87.29 96.46 85.66 96.46 85.66 97.22 82.62 97.22 82.62 97.74 81.06 97.41 78.67 96.48 77.31 96.48 77.31 93.64 73.16 93.64 73.16 92.71 71.8 92.9 69.73 94.07 68.56 94.07 68.56 99.21 63.43 99.21 63.43 100.38 62.26 102.44 62.07 103.81 63 103.81 63 107.32 65.4 107.32 65.4 108.68 66.34 111.04 66.57 112.56 65.92 112.56 65.92 116.5 64.65 116.5 64.65 118.12 64.31 120.02 62.81 120.73 61.32 120.73 61.32 122.89 56.81 122.89 56.81 123.61 55.32 125.5 54.46 127.09 54.88 127.09 54.88 134.11 56.76 134.11 56.76 135.7 57.19 136.9 58.89 136.78 60.53 136.78 60.53 136.47 64.57 136.47 64.57 136.34 66.21 137.36 68.32 138.72 69.25 138.72 69.25 139.92 70.06 141.54 71.68 142.54 72.68 142.54 72.68 142.54 72.68 143.48 73.87 145.6 74.74 147.24 74.62 147.24 74.62 153.1 74.17 153.1 74.17 154.74 74.04 156.44 75.24 156.86 76.84 156.86 76.84 158.74 83.86 158.74 83.86 159.17 85.45 158.3 87.34 156.82 88.05ZM 128.58 84.65C 125.3 81.37 120 81.37 116.73 84.64 113.46 87.9 113.47 93.21 116.75 96.48 120.02 99.76 125.32 99.76 128.59 96.49 131.86 93.23 131.85 87.92 128.58 84.65ZM 95.2 56.69C 95.2 56.69 88.78 57.89 88.78 57.89 87.16 58.2 85.41 59.73 84.89 61.29 84.89 61.29 83.03 65.83 83.03 65.83 82.29 67.3 82.45 69.63 83.38 70.99 83.38 70.99 87.06 76.37 87.06 76.37 87.99 77.73 87.8 79.8 86.63 80.97 86.63 80.97 80.98 86.62 80.98 86.62 79.81 87.79 77.74 87.98 76.38 87.05 76.38 87.05 71.06 83.41 71.06 83.41 69.7 82.48 67.39 82.33 65.92 83.08 65.92 83.08 61.27 85.02 61.27 85.02 59.71 85.54 58.18 87.3 57.87 88.92 57.87 88.92 56.7 95.19 56.7 95.19 56.4 96.81 54.8 98.14 53.15 98.14 53.15 98.14 45.15 98.14 45.15 98.14 43.5 98.14 41.9 96.81 41.59 95.19 41.59 95.19 40.43 88.96 40.43 88.96 40.12 87.34 38.59 85.59 37.03 85.07 37.03 85.07 32.31 83.13 32.31 83.13 30.84 82.38 28.52 82.54 27.15 83.47 27.15 83.47 21.92 87.05 21.92 87.05 20.56 87.98 18.49 87.79 17.32 86.62 17.32 86.62 11.66 80.97 11.66 80.97 10.5 79.8 10.3 77.73 11.24 76.37 11.24 76.37 14.83 71.12 14.83 71.12 15.76 69.76 15.91 67.44 15.17 65.97 15.17 65.97 13.23 61.26 13.23 61.26 12.71 59.7 10.96 58.17 9.34 57.86 9.34 57.86 3.1 56.69 3.1 56.69 1.47 56.39 0.15 54.79 0.15 53.14 0.15 53.14 0.15 45.14 0.15 45.14 0.15 43.49 1.47 41.89 3.1 41.58 3.1 41.58 9.34 40.41 9.34 40.41 10.96 40.11 12.71 38.58 13.23 37.01 13.23 37.01 15.17 32.31 15.17 32.31 15.91 30.84 15.76 28.52 14.83 27.16 14.83 27.16 11.23 21.91 11.23 21.91 10.3 20.54 10.49 18.47 11.66 17.31 11.66 17.31 17.32 11.65 17.32 11.65 18.49 10.48 20.55 10.29 21.92 11.22 21.92 11.22 27.15 14.81 27.15 14.81 28.52 15.74 30.83 15.89 32.31 15.15 32.31 15.15 37.03 13.2 37.03 13.2 38.59 12.69 40.12 10.93 40.43 9.31 40.43 9.31 41.59 3.09 41.59 3.09 41.9 1.46 43.5 0.14 45.15 0.14 45.15 0.14 53.15 0.14 53.15 0.14 54.8 0.14 56.4 1.46 56.7 3.09 56.7 3.09 57.87 9.35 57.87 9.35 58.18 10.97 59.71 12.73 61.27 13.26 61.27 13.26 65.92 15.19 65.92 15.19 67.39 15.94 69.7 15.79 71.06 14.86 71.06 14.86 76.38 11.22 76.38 11.22 77.74 10.29 79.81 10.48 80.98 11.65 80.98 11.65 86.63 17.31 86.63 17.31 87.8 18.47 87.99 20.54 87.06 21.91 87.06 21.91 83.38 27.29 83.38 27.29 82.45 28.65 82.29 30.97 83.03 32.45 83.03 32.45 84.89 36.98 84.89 36.98 85.41 38.55 87.16 40.08 88.78 40.38 88.78 40.38 95.2 41.58 95.2 41.58 96.82 41.89 98.15 43.49 98.15 45.14 98.15 45.14 98.15 53.14 98.15 53.14 98.15 54.79 96.82 56.39 95.2 56.69ZM 49.06 36.17C 41.92 36.17 36.12 41.97 36.12 49.14 36.12 56.3 41.92 62.11 49.06 62.11 56.21 62.11 62 56.3 62 49.14 62 41.97 56.21 36.17 49.06 36.17Z" fill="rgb(71,126,187)"/><g clip-path="url(#clip0)"><path fillRule="evenodd" d="M 131.62 99.52C 126.69 104.45 118.68 104.44 113.73 99.5 108.78 94.55 108.77 86.54 113.71 81.6 118.64 76.66 126.66 76.67 131.6 81.62 136.55 86.57 136.56 94.58 131.62 99.52ZM 49.06 67.62C 38.88 67.62 30.63 59.35 30.63 49.14 30.63 38.94 38.88 30.66 49.06 30.66 59.25 30.66 67.5 38.94 67.5 49.14 67.5 59.35 59.25 67.62 49.06 67.62Z" fill="rgb(217,233,241)"/><path fillRule="evenodd" d="M 98 119C 73 96 95 65 95 65 95 65 150 118 150 118 150 118 124.04 142.96 98 119ZM 13 84C-21 47 14 14 14 14 14 14 84 84 84 84 84 84 47 121 13 84Z" fill="rgb(0,34,73)" opacity="0.20"/></g></g></svg>