<svg xmlns="http://www.w3.org/2000/svg" width="116.406" height="36.281" viewBox="0 0 116.406 36.281">
  <metadata><?xpacket begin="﻿" id="W5M0MpCehiHzreSzNTczkc9d"?>
<x:xmpmeta xmlns:x="adobe:ns:meta/" x:xmptk="Adobe XMP Core 5.6-c138 79.159824, 2016/09/14-01:09:01        ">
   <rdf:RDF xmlns:rdf="http://www.w3.org/1999/02/22-rdf-syntax-ns#">
      <rdf:Description rdf:about=""/>
   </rdf:RDF>
</x:xmpmeta>
                                                                                                    
                                                                                                    
                                                                                                    
                                                                                                    
                                                                                                    
                                                                                                    
                                                                                                    
                                                                                                    
                                                                                                    
                                                                                                    
                                                                                                    
                                                                                                    
                                                                                                    
                                                                                                    
                                                                                                    
                                                                                                    
                                                                                                    
                                                                                                    
                                                                                                    
                                                                                                    
                           
<?xpacket end="w"?></metadata>
<defs>
    <style>
      .cls-1 {
        fill: #fff;
        fill-rule: evenodd;
      }
    </style>
  </defs>
  <path id="logo" class="cls-1" d="M245.341,83.381l-1.147,6.086a32.646,32.646,0,0,1-15.432,4.52c-10.038.336-16.779-5.591-16.779-15.946,0-12.115,8.326-20.469,20.7-20.333a22.4,22.4,0,0,1,12.042,3.308l-3.353,7.631a17.794,17.794,0,0,0-6.7-1.236c-6.11,0-9.092,3.965-9.263,9.087-0.176,5.293,3.095,8.8,7.94,9.263A20.3,20.3,0,0,0,245.341,83.381Zm22.45,1.884c-0.254,1.821.421,2.946,4.655,1.093l1.522,4.5c-5.293,2.492-8.506,3.131-10.623,3.131-3.219,0-5.125-1.313-5.844-3.218a10.81,10.81,0,0,1-7.58,3.218c-4.489,0-7.2-3.3-6.564-7.749l2.16-15.245h10.248l-1.822,12.831a1.688,1.688,0,0,0,1.61,2.075,2.379,2.379,0,0,0,2.159-2.075l1.821-12.831h10.248ZM288.158,73.2l1.524-11.052H299.93l-3.261,23.29c-0.211,1.651.545,2.887,4.779,0.594l1.676,4.764a21.57,21.57,0,0,1-10.9,3.2c-3.133-.041-5.124-1.44-5.8-3.515a8.988,8.988,0,0,1-7.241,3.515c-4.743,0-7.5-4.4-7.5-9.909,0-7.749,4.954-13.635,11.136-13.635A6.189,6.189,0,0,1,288.158,73.2Zm-0.381,8.385c0-1.779-.974-3.176-2.5-3.176-1.99,0-3.557,2.033-3.557,4.362,0,1.778.932,3.176,2.5,3.176C286.168,85.942,287.777,83.91,287.777,81.581ZM317.5,73.2l0.3-2.2h10.248l-2.033,14.44c-0.212,1.651.805,1.948,2.371,1.567l-0.361,4.385a10.52,10.52,0,0,1-6.456,2.6c-3.134,0-5.124-1.44-5.8-3.515a8.986,8.986,0,0,1-7.24,3.515c-4.744,0-7.5-4.4-7.5-9.909,0-7.58,4.954-13.635,11.137-13.635A6.19,6.19,0,0,1,317.5,73.2Zm-0.381,8.385c0-1.779-.974-3.176-2.5-3.176-1.99,0-3.557,2.033-3.557,4.362,0,1.778.932,3.176,2.5,3.176C315.512,85.942,317.122,83.91,317.122,81.581Z" transform="translate(-211.969 -57.719)"/>
</svg>
