<?xml version="1.0" encoding="utf-8"?>
<svg xmlns="http://www.w3.org/2000/svg"
	xmlns:xlink="http://www.w3.org/1999/xlink"
	width="90px" height="131px" viewBox="0 0 90 131">
<clipPath id="clip0"><path fillRule="evenodd" d="M 0.81 90.46C 0.81 90.46 4.76 130.62 4.76 130.62 4.76 130.62 41.51 113.96 41.51 113.96 41.51 113.96 33.69 87.51 0.81 90.46Z"/></clipPath><clipPath id="clip1"><path fillRule="evenodd" d="M 77.66 3.42C 88.9 9.91 92.75 24.28 86.26 35.52 86.26 35.52 80.76 45.05 80.76 45.05 74.27 56.29 59.9 60.14 48.66 53.65 37.42 47.16 33.57 32.79 40.06 21.55 40.06 21.55 45.56 12.02 45.56 12.02 52.05 0.78 66.42-3.07 77.66 3.42Z"/></clipPath><clipPath id="clip2"><path fillRule="evenodd" d="M 45.31 12.46C 45.31 12.46 56.48 16.6 66.65 22.47 76.83 28.35 86.01 35.95 86.01 35.95 86.01 35.95 73.51 57.61 73.51 57.61 73.51 57.61 32.81 34.11 32.81 34.11 32.81 34.11 45.31 12.46 45.31 12.46Z"/></clipPath><clipPath id="clip3"><path fillRule="evenodd" d="M 34.85 30.33C 34.85 30.33 46.02 34.47 56.2 40.34 66.37 46.22 75.55 53.83 75.55 53.83 75.55 53.83 41.51 113.96 41.51 113.96 41.51 113.96 38.55 109.94 32.98 106.73 26.42 102.94 18.27 107.47 18.27 107.47 18.27 107.47 18.37 98.29 11.21 94.15 5.76 91.01 0.81 90.46 0.81 90.46 0.81 90.46 34.85 30.33 34.85 30.33Z"/></clipPath><path fillRule="evenodd" d="M 0.81 90.46C 0.81 90.46 4.76 130.62 4.76 130.62 4.76 130.62 41.51 113.96 41.51 113.96 41.51 113.96 33.69 87.51 0.81 90.46Z" fill="rgb(255,235,185)"/><g><path fillRule="evenodd" d="M 0.81 90.46C 0.81 90.46 4.76 130.62 4.76 130.62 4.76 130.62 41.51 113.96 41.51 113.96 41.51 113.96 33.69 87.51 0.81 90.46Z" fill="rgb(255,235,185)"/><path fillRule="evenodd" d="M 2.66 119.24C 2.66 119.24 8.45 119.89 15.8 126.83 23.15 133.76 6.26 134.02 6.26 134.02 6.26 134.02-2.47 130.14-2.57 129.31-2.67 128.48-0.48 119.35-0.48 119.35" fill="rgb(57,57,57)" clip-path="url(#clip0)"/></g><path fillRule="evenodd" d="M 77.66 3.42C 88.9 9.91 92.75 24.28 86.26 35.52 86.26 35.52 80.76 45.05 80.76 45.05 74.27 56.29 59.9 60.14 48.66 53.65 37.42 47.16 33.57 32.79 40.06 21.55 40.06 21.55 45.56 12.02 45.56 12.02 52.05 0.78 66.42-3.07 77.66 3.42Z" fill="rgb(231,142,141)"/><g><path fillRule="evenodd" d="M 77.66 3.42C 88.9 9.91 92.75 24.28 86.26 35.52 86.26 35.52 80.76 45.05 80.76 45.05 74.27 56.29 59.9 60.14 48.66 53.65 37.42 47.16 33.57 32.79 40.06 21.55 40.06 21.55 45.56 12.02 45.56 12.02 52.05 0.78 66.42-3.07 77.66 3.42Z" fill="rgb(231,142,141)"/><path fillRule="evenodd" d="M 78.59 2.8C 78.59 2.8 99.38 14.8 99.38 14.8 99.38 14.8 85.88 38.19 85.88 38.19 85.88 38.19 65.09 26.19 65.09 26.19 65.09 26.19 78.59 2.8 78.59 2.8Z" fill="rgb(217,115,117)" clip-path="url(#clip1)"/></g><path fillRule="evenodd" d="M 45.31 12.46C 45.31 12.46 56.48 16.6 66.65 22.47 76.83 28.35 86.01 35.95 86.01 35.95 86.01 35.95 73.51 57.61 73.51 57.61 73.51 57.61 32.81 34.11 32.81 34.11 32.81 34.11 45.31 12.46 45.31 12.46Z" fill="rgb(217,233,241)"/><g><path fillRule="evenodd" d="M 45.31 12.46C 45.31 12.46 56.48 16.6 66.65 22.47 76.83 28.35 86.01 35.95 86.01 35.95 86.01 35.95 73.51 57.61 73.51 57.61 73.51 57.61 32.81 34.11 32.81 34.11 32.81 34.11 45.31 12.46 45.31 12.46Z" fill="rgb(217,233,241)"/><path fillRule="evenodd" d="M 68.09 20.99C 68.09 20.99 89.74 33.49 89.74 33.49 89.74 33.49 76.74 56.01 76.74 56.01 76.74 56.01 55.09 43.51 55.09 43.51 55.09 43.51 68.09 20.99 68.09 20.99Z" fill="rgb(189,217,231)" clip-path="url(#clip2)"/></g><path fillRule="evenodd" d="M 34.85 30.33C 34.85 30.33 46.02 34.47 56.2 40.34 66.37 46.22 75.55 53.83 75.55 53.83 75.55 53.83 41.51 113.96 41.51 113.96 41.51 113.96 38.55 109.94 32.98 106.73 26.42 102.94 18.27 107.47 18.27 107.47 18.27 107.47 18.37 98.29 11.21 94.15 5.76 91.01 0.81 90.46 0.81 90.46 0.81 90.46 34.85 30.33 34.85 30.33Z" fill="rgb(241,195,15)"/><g><path fillRule="evenodd" d="M 34.85 30.33C 34.85 30.33 46.02 34.47 56.2 40.34 66.37 46.22 75.55 53.83 75.55 53.83 75.55 53.83 41.51 113.96 41.51 113.96 41.51 113.96 38.55 109.94 32.98 106.73 26.42 102.94 18.27 107.47 18.27 107.47 18.27 107.47 18.37 98.29 11.21 94.15 5.76 91.01 0.81 90.46 0.81 90.46 0.81 90.46 34.85 30.33 34.85 30.33Z" fill="rgb(241,195,15)"/><path fillRule="evenodd" d="M 62.59 31.44C 62.59 31.44 85.97 44.95 85.97 44.95 85.97 44.95 41.97 121.16 41.97 121.16 41.97 121.16 18.59 107.66 18.59 107.66 18.59 107.66 62.59 31.44 62.59 31.44Z" fill="rgb(243,155,17)" clip-path="url(#clip3)"/></g></svg>