<?xml version="1.0" encoding="utf-8"?>
<svg xmlns="http://www.w3.org/2000/svg"
	xmlns:xlink="http://www.w3.org/1999/xlink"
	width="95px" height="134px" viewBox="0 0 95 134">
<clipPath id="clip0"><path fillRule="evenodd" d="M 91.5 4.57C 90.9 2.75 90.49 1.13 90.58 0.97 90.68 0.8 90.72 0.67 90.66 0.68 90.61 0.68 90.17 0.64 90.11 0.49 90.06 0.35 89.93 0.37 89.83 0.54 89.73 0.72 88.12 1.21 86.26 1.63 86.26 1.63 51.15 9.59 35.45 38.34 17.98 70.33 19.3 92.12 19.3 92.12 19.26 94.03 20.58 96.37 22.24 97.33 22.24 97.33 28.02 100.66 28.02 100.66 29.67 101.62 31.19 102.5 31.4 102.62 31.6 102.73 33.12 103.61 34.78 104.57 34.78 104.57 40.92 108.11 40.92 108.11 42.57 109.07 45.28 109.07 46.93 108.12 46.93 108.12 65.49 97.76 84.46 66.64 101.54 38.61 91.5 4.57 91.5 4.57Z"/></clipPath><path fillRule="evenodd" d="M 48.1 108C 48.1 108 49.71 109.22 49.79 111.57 49.88 113.93 49.24 129.15 49.24 129.15 49.24 129.15 63.67 112.15 67.84 106.87 71.28 102.51 71.89 94.31 65.71 89.01 59.53 83.71 48.1 108 48.1 108Z" fill="rgb(57,109,165)"/><path fillRule="evenodd" d="M 18.96 91.17C 18.96 91.17 17.1 90.39 15.02 91.49 12.94 92.6 0.08 100.77 0.08 100.77 0.08 100.77 7.58 79.77 10.07 73.51 12.12 68.35 18.92 63.73 26.6 66.43 34.28 69.13 18.96 91.17 18.96 91.17Z" fill="rgb(71,127,187)"/><path fillRule="evenodd" d="M 26.08 96.15C 26.08 96.15 39.94 104.15 39.94 104.15 41.61 105.11 42.18 107.26 41.22 108.93 40.25 110.6 38.11 111.18 36.44 110.21 36.44 110.21 22.58 102.21 22.58 102.21 20.91 101.24 20.33 99.1 21.3 97.43 22.26 95.76 24.41 95.18 26.08 96.15Z" fill="rgb(217,115,117)"/><path fillRule="evenodd" d="M 29.81 108.69C 33.63 110.9 34.94 115.79 32.73 119.62 30.53 123.45 15.66 133.14 15.66 133.14 15.66 133.14 16.67 115.45 18.88 111.62 21.09 107.79 25.98 106.48 29.81 108.69Z" fill="rgb(241,195,15)"/><path fillRule="evenodd" d="M 91.5 4.57C 90.9 2.75 90.49 1.13 90.58 0.97 90.68 0.8 90.72 0.67 90.66 0.68 90.61 0.68 90.17 0.64 90.11 0.49 90.06 0.35 89.93 0.37 89.83 0.54 89.73 0.72 88.12 1.21 86.26 1.63 86.26 1.63 51.15 9.59 35.45 38.34 17.98 70.33 19.3 92.12 19.3 92.12 19.26 94.03 20.58 96.37 22.24 97.33 22.24 97.33 28.02 100.66 28.02 100.66 29.67 101.62 31.19 102.5 31.4 102.62 31.6 102.73 33.12 103.61 34.78 104.57 34.78 104.57 40.92 108.11 40.92 108.11 42.57 109.07 45.28 109.07 46.93 108.12 46.93 108.12 65.49 97.76 84.46 66.64 101.54 38.61 91.5 4.57 91.5 4.57Z" fill="rgb(217,233,241)"/><g><path fillRule="evenodd" d="M 91.5 4.57C 90.9 2.75 90.49 1.13 90.58 0.97 90.68 0.8 90.72 0.67 90.66 0.68 90.61 0.68 90.17 0.64 90.11 0.49 90.06 0.35 89.93 0.37 89.83 0.54 89.73 0.72 88.12 1.21 86.26 1.63 86.26 1.63 51.15 9.59 35.45 38.34 17.98 70.33 19.3 92.12 19.3 92.12 19.26 94.03 20.58 96.37 22.24 97.33 22.24 97.33 28.02 100.66 28.02 100.66 29.67 101.62 31.19 102.5 31.4 102.62 31.6 102.73 33.12 103.61 34.78 104.57 34.78 104.57 40.92 108.11 40.92 108.11 42.57 109.07 45.28 109.07 46.93 108.12 46.93 108.12 65.49 97.76 84.46 66.64 101.54 38.61 91.5 4.57 91.5 4.57Z" fill="rgb(217,233,241)"/><g clip-path="url(#clip0)"><path fillRule="evenodd" d="M 91.44-0.06C 91.44-0.06 116.56 14.44 116.56 14.44 116.56 14.44 55.56 120.09 55.56 120.09 55.56 120.09 30.44 105.59 30.44 105.59 30.44 105.59 91.44-0.06 91.44-0.06Z" fill="rgb(190,218,231)"/><path fillRule="evenodd" d="M 92.95-2.68C 92.95-2.68 108.55 6.3 108.55 6.3 108.55 6.3 95.55 28.82 95.55 28.82 95.55 28.82 88.75 22.77 80.94 18.14 80.94 18.14 92.95-2.68 92.95-2.68Z" fill="rgb(215,71,71)"/><path fillRule="evenodd" d="M 80.94 18.14C 80.7 18 80.47 17.86 80.24 17.72 72.32 13.15 63.51 10.32 63.51 10.32 63.51 10.32 76.49-12.16 76.49-12.16 76.49-12.16 92.95-2.68 92.95-2.68 92.95-2.68 80.94 18.14 80.94 18.14Z" fill="rgb(245,123,113)"/></g></g><path fillRule="evenodd" d="M 70.99 34.36C 78.86 38.91 81.56 48.98 77.02 56.85 72.47 64.73 62.4 67.43 54.52 62.88 46.65 58.33 43.95 48.26 48.5 40.39 53.04 32.51 63.11 29.81 70.99 34.36Z" fill="rgb(255,255,255)"/><path fillRule="evenodd" d="M 69.01 37.79C 74.99 41.25 77.03 48.89 73.58 54.87 70.13 60.85 62.49 62.9 56.51 59.45 50.53 55.99 48.48 48.35 51.93 42.37 55.38 36.39 63.03 34.34 69.01 37.79Z" fill="rgb(90,209,234)"/></svg>